<svg xmlns="http://www.w3.org/2000/svg" version="1.1">
<rect x="0" y="0" width="100" height="20" style="fill:white;stroke:black;stroke-width:2"/>
<text x="50" y="15" text-anchor="middle" style="font-family: Arial, Helvetica, sans-serif">
(x902,1)</text>
<line x1="50" y1="20" x2="50" y2="700" style="stroke:black;stroke-width:2" />
<rect x="25" y="700" width="50" height="10" style="fill:black;stroke:black;stroke-width:2"/>
<rect x="504" y="0" width="100" height="20" style="fill:white;stroke:black;stroke-width:2"/>
<text x="554" y="15" text-anchor="middle" style="font-family: Arial, Helvetica, sans-serif">
i</text>
<line x1="554" y1="20" x2="554" y2="700" style="stroke:black;stroke-width:2" />
<rect x="529" y="700" width="50" height="10" style="fill:black;stroke:black;stroke-width:2"/>
<rect x="1008" y="0" width="100" height="20" style="fill:white;stroke:black;stroke-width:2"/>
<text x="1058" y="15" text-anchor="middle" style="font-family: Arial, Helvetica, sans-serif">
(x36,1)</text>
<line x1="1058" y1="20" x2="1058" y2="700" style="stroke:black;stroke-width:2" />
<rect x="1033" y="700" width="50" height="10" style="fill:black;stroke:black;stroke-width:2"/>
<rect x="1512" y="0" width="100" height="20" style="fill:white;stroke:black;stroke-width:2"/>
<text x="1562" y="15" text-anchor="middle" style="font-family: Arial, Helvetica, sans-serif">
(x901,1)</text>
<line x1="1562" y1="20" x2="1562" y2="700" style="stroke:black;stroke-width:2" />
<rect x="1537" y="700" width="50" height="10" style="fill:black;stroke:black;stroke-width:2"/>
<line x1="50.0" y1="50" x2="554.0" y2="50" style="stroke:black;stroke-width:2" />
<line x1="544.0" y1="40" x2="554.0" y2="50" style="stroke:black;stroke-width:2" />
<line x1="544.0" y1="60" x2="554.0" y2="50" style="stroke:black;stroke-width:2" />
<text x="302.0" y="45" text-anchor="middle" style="font-family: Arial, Helvetica, sans-serif"> one,{x902,NC(1),Goods(1),Price(1)}_(pk(x36))</text>
<line x1="554.0" y1="100" x2="1058.0" y2="100" style="stroke:black;stroke-width:2" />
<line x1="1048.0" y1="90" x2="1058.0" y2="100" style="stroke:black;stroke-width:2" />
<line x1="1048.0" y1="110" x2="1058.0" y2="100" style="stroke:black;stroke-width:2" />
<text x="806.0" y="95" text-anchor="middle" style="font-family: Arial, Helvetica, sans-serif"> one,{x902,NC(1),Goods(1),Price(1)}_(pk(x36))</text>
<line x1="554.0" y1="150" x2="1058.0" y2="150" style="stroke:black;stroke-width:2" />
<line x1="564.0" y1="140" x2="554.0" y2="150" style="stroke:black;stroke-width:2" />
<line x1="564.0" y1="160" x2="554.0" y2="150" style="stroke:black;stroke-width:2" />
<text x="806.0" y="145" text-anchor="middle" style="font-family: Arial, Helvetica, sans-serif"> two,{NC(1),NM(2),x36,Goods(1),Price(1)}_(pk(x902))</text>
<line x1="50.0" y1="200" x2="554.0" y2="200" style="stroke:black;stroke-width:2" />
<line x1="60.0" y1="190" x2="50.0" y2="200" style="stroke:black;stroke-width:2" />
<line x1="60.0" y1="210" x2="50.0" y2="200" style="stroke:black;stroke-width:2" />
<text x="302.0" y="195" text-anchor="middle" style="font-family: Arial, Helvetica, sans-serif"> two,{NC(1),NM(2),x36,Goods(1),Price(1)}_(pk(x902))</text>
<line x1="50.0" y1="250" x2="554.0" y2="250" style="stroke:black;stroke-width:2" />
<line x1="544.0" y1="240" x2="554.0" y2="250" style="stroke:black;stroke-width:2" />
<line x1="544.0" y1="260" x2="554.0" y2="250" style="stroke:black;stroke-width:2" />
<text x="302.0" y="245" text-anchor="middle" style="font-family: Arial, Helvetica, sans-serif"> three,{x902,NC(1),NM(2),Price(1)}_(pk(x901))</text>
<line x1="554.0" y1="300" x2="1562.0" y2="300" style="stroke:black;stroke-width:2" />
<line x1="1552.0" y1="290" x2="1562.0" y2="300" style="stroke:black;stroke-width:2" />
<line x1="1552.0" y1="310" x2="1562.0" y2="300" style="stroke:black;stroke-width:2" />
<text x="1058.0" y="295" text-anchor="middle" style="font-family: Arial, Helvetica, sans-serif"> three,{x902,NC(1),NM(2),Price(1)}_(pk(x901))</text>
<line x1="554.0" y1="350" x2="1562.0" y2="350" style="stroke:black;stroke-width:2" />
<line x1="564.0" y1="340" x2="554.0" y2="350" style="stroke:black;stroke-width:2" />
<line x1="564.0" y1="360" x2="554.0" y2="350" style="stroke:black;stroke-width:2" />
<text x="1058.0" y="345" text-anchor="middle" style="font-family: Arial, Helvetica, sans-serif"> four,{hash(x902,NC(1),NB(4),NM(2),Price(1))}_inv(pk(x901)),{NC(1),NB(4)}_(pk(x902))</text>
<line x1="50.0" y1="400" x2="554.0" y2="400" style="stroke:black;stroke-width:2" />
<line x1="60.0" y1="390" x2="50.0" y2="400" style="stroke:black;stroke-width:2" />
<line x1="60.0" y1="410" x2="50.0" y2="400" style="stroke:black;stroke-width:2" />
<text x="302.0" y="395" text-anchor="middle" style="font-family: Arial, Helvetica, sans-serif"> four,{hash(x902,NC(1),NB(4),NM(2),Price(1))}_inv(pk(x901)),{NC(1),NB(4)}_(pk(x902))</text>
<line x1="50.0" y1="450" x2="554.0" y2="450" style="stroke:black;stroke-width:2" />
<line x1="544.0" y1="440" x2="554.0" y2="450" style="stroke:black;stroke-width:2" />
<line x1="544.0" y1="460" x2="554.0" y2="450" style="stroke:black;stroke-width:2" />
<text x="302.0" y="445" text-anchor="middle" style="font-family: Arial, Helvetica, sans-serif"> five,{hash(x902,NC(1),NB(4),NM(2),Price(1))}_inv(pk(x901)),NB(4)</text>
<line x1="554.0" y1="500" x2="1058.0" y2="500" style="stroke:black;stroke-width:2" />
<line x1="1048.0" y1="490" x2="1058.0" y2="500" style="stroke:black;stroke-width:2" />
<line x1="1048.0" y1="510" x2="1058.0" y2="500" style="stroke:black;stroke-width:2" />
<text x="806.0" y="495" text-anchor="middle" style="font-family: Arial, Helvetica, sans-serif"> five,{hash(x902,NC(1),NB(4),NM(2),Price(1))}_inv(pk(x901)),NB(4)</text>
<line x1="554.0" y1="550" x2="1058.0" y2="550" style="stroke:black;stroke-width:2" />
<line x1="564.0" y1="540" x2="554.0" y2="550" style="stroke:black;stroke-width:2" />
<line x1="564.0" y1="560" x2="554.0" y2="550" style="stroke:black;stroke-width:2" />
<text x="806.0" y="545" text-anchor="middle" style="font-family: Arial, Helvetica, sans-serif"> six,{hash(x901,NB(4),NM(2))}_inv(pk(x36))</text>
<line x1="554.0" y1="600" x2="1562.0" y2="600" style="stroke:black;stroke-width:2" />
<line x1="1552.0" y1="590" x2="1562.0" y2="600" style="stroke:black;stroke-width:2" />
<line x1="1552.0" y1="610" x2="1562.0" y2="600" style="stroke:black;stroke-width:2" />
<text x="1058.0" y="595" text-anchor="middle" style="font-family: Arial, Helvetica, sans-serif"> six,{hash(x901,NB(4),NM(2))}_inv(pk(i))</text>
</svg>