<svg xmlns="http://www.w3.org/2000/svg" version="1.1">
<rect x="0" y="0" width="100" height="20" style="fill:white;stroke:black;stroke-width:2"/>
<text x="50" y="15" text-anchor="middle" style="font-family: Arial, Helvetica, sans-serif">
i</text>
<line x1="50" y1="20" x2="50" y2="300" style="stroke:black;stroke-width:2" />
<rect x="25" y="300" width="50" height="10" style="fill:black;stroke:black;stroke-width:2"/>
<rect x="120" y="0" width="100" height="20" style="fill:white;stroke:black;stroke-width:2"/>
<text x="170" y="15" text-anchor="middle" style="font-family: Arial, Helvetica, sans-serif">
(x20,1)</text>
<line x1="170" y1="20" x2="170" y2="300" style="stroke:black;stroke-width:2" />
<rect x="145" y="300" width="50" height="10" style="fill:black;stroke:black;stroke-width:2"/>
<rect x="240" y="0" width="100" height="20" style="fill:white;stroke:black;stroke-width:2"/>
<text x="290" y="15" text-anchor="middle" style="font-family: Arial, Helvetica, sans-serif">
(i,17)</text>
<line x1="290" y1="20" x2="290" y2="300" style="stroke:black;stroke-width:2" />
<rect x="265" y="300" width="50" height="10" style="fill:black;stroke:black;stroke-width:2"/>
<line x1="50.0" y1="50" x2="170.0" y2="50" style="stroke:black;stroke-width:2" />
<line x1="160.0" y1="40" x2="170.0" y2="50" style="stroke:black;stroke-width:2" />
<line x1="160.0" y1="60" x2="170.0" y2="50" style="stroke:black;stroke-width:2" />
<text x="110.0" y="45" text-anchor="middle" style="font-family: Arial, Helvetica, sans-serif"> x205</text>
<line x1="50.0" y1="100" x2="170.0" y2="100" style="stroke:black;stroke-width:2" />
<line x1="60.0" y1="90" x2="50.0" y2="100" style="stroke:black;stroke-width:2" />
<line x1="60.0" y1="110" x2="50.0" y2="100" style="stroke:black;stroke-width:2" />
<text x="110.0" y="95" text-anchor="middle" style="font-family: Arial, Helvetica, sans-serif"> h(pw(x20,x25),x205)</text>
<line x1="50.0" y1="150" x2="290.0" y2="150" style="stroke:black;stroke-width:2" />
<line x1="280.0" y1="140" x2="290.0" y2="150" style="stroke:black;stroke-width:2" />
<line x1="280.0" y1="160" x2="290.0" y2="150" style="stroke:black;stroke-width:2" />
<text x="170.0" y="145" text-anchor="middle" style="font-family: Arial, Helvetica, sans-serif"> h(guessPW,x205)</text>
<line x1="50.0" y1="200" x2="290.0" y2="200" style="stroke:black;stroke-width:2" />
<line x1="280.0" y1="190" x2="290.0" y2="200" style="stroke:black;stroke-width:2" />
<line x1="280.0" y1="210" x2="290.0" y2="200" style="stroke:black;stroke-width:2" />
<text x="170.0" y="195" text-anchor="middle" style="font-family: Arial, Helvetica, sans-serif"> h(guessPW,x205)</text>
</svg>