<svg width="401" height="411" xmlns="http://www.w3.org/2000/svg" version="1.1">

 <g>
  <title>Layer 1</title>
  <rect id="svg_1" stroke-width="2" stroke="black" fill="black" height="20" width="100" y="0" x="0"/>
  <text fill="none" transform="matrix(1.01937 0 0 1 -0.471213 0)" stroke="#ffffff" id="svg_2" font-family=" Arial, Helvetica, sans-serif" text-anchor="middle" y="15" x="50">(x602,1)</text>
  <line id="svg_3" stroke-width="2" fill="white" stroke="white" y2="400" x2="50" y1="20" x1="50"/>
  <rect id="svg_4" stroke-width="2" stroke="black" fill="black" height="10" width="50" y="400" x="25"/>
  <rect id="svg_5" stroke-width="2" stroke="black" fill="black" height="20" width="100" y="0" x="150"/>
  <text fill="#ffffff" id="svg_6" font-family=" Arial, Helvetica, sans-serif" text-anchor="middle" y="15" x="200">i</text>
  <line stroke="#ffffff" id="svg_7" stroke-width="2" y2="400" x2="200" y1="20" x1="200"/>
  <rect id="svg_8" stroke-width="2" stroke="black" fill="black" height="10" width="50" y="400" x="175"/>
  <rect id="svg_9" stroke-width="2" stroke="black" fill="black" height="20" width="100" y="0" x="300"/>
  <text fill="#ffffff" id="svg_10" font-family=" Arial, Helvetica, sans-s erif" text-anchor="middle" y="15" x="350">1
(x601,1)</text>
  <line id="svg_11" stroke-width="2" stroke="white" y2="400" x2="350" y1="20" x1="350"/>
  <rect id="svg_12" stroke-width="2" stroke="black" fill="black" height="10" width="50" y="400" x="325"/>
  <line id="svg_13" stroke-width="2" stroke="white" y2="50" x2="200" y1="50" x1="50"/>
  <line id="svg_14" stroke-width="2" stroke="white" y2="50" x2="200" y1="40" x1="190"/>
  <line id="svg_15" stroke-width="2" stroke="white" y2="50" x2="200" y1="60" x1="190"/>
  <text id="svg_16" stroke="white" fill="white" font-family=" Arial, Helvetica, sans-serif" text-anchor="middle" y="45" x="125">{NA(1),x602}_(pk(i))</text>
  <line id="svg_17" stroke-width="2" stroke="white" y2="100" x2="350" y1="100" x1="200"/>
  <line id="svg_18" stroke-width="2" stroke="white" y2="100" x2="350" y1="90" x1="340"/>
  <line id="svg_19" stroke-width="2" stroke="white" y2="100" x2="350" y1="110" x1="340"/>
  <text font-weight="normal" id="svg_20" stroke="white" fill="white" font-family=" Arial, Helvetica, sans-serif" text-anchor="middle" y="95" x="275">{NA(1),x602}_(pk(x601))</text>
  <line id="svg_21" stroke-width="2" stroke="white" y2="150" x2="350" y1="150" x1="200"/>
  <line id="svg_22" stroke-width="2" stroke="white" y2="150" x2="200" y1="140" x1="210"/>
  <line id="svg_23" stroke-width="2" stroke="white" y2="150" x2="200" y1="160" x1="210"/>
  <text fill="#ffffff" id="svg_24" font-family=" Arial, Helvetica, sans-serif" text-anchor="middle" y="146" x="275">{NA(1),NB(2)}_(pk(x602))</text>
  <line id="svg_25" stroke-width="2" stroke="white" y2="200" x2="200" y1="200" x1="50"/>
  <line id="svg_26" stroke-width="2" stroke="white" y2="200" x2="50" y1="190" x1="60"/>
  <line id="svg_27" stroke-width="2" stroke="white" y2="200" x2="50" y1="210" x1="60"/>
  <text fill="#ffffff" id="svg_28" font-family=" Arial, Helvetica, sans-serif" text-anchor="middle" y="195" x="125">{NA(1),NB(2)}_(pk(x602))</text>
  <line id="svg_29" stroke-width="2" stroke="white" y2="250" x2="200" y1="250" x1="50"/>
  <line id="svg_30" stroke-width="2" stroke="white" y2="250" x2="200" y1="240" x1="190"/>
  <line id="svg_31" stroke-width="2" stroke="white" y2="250" x2="200" y1="260" x1="190"/>
  <text fill="white" id="svg_32" font-family=" Arial, Helvetica, sans-serif" text-anchor="middle" y="245" x="125">{NB(2)}_(pk(i))</text>
  <line id="svg_33" stroke-width="2" stroke="white" y2="300" x2="350" y1="300" x1="200"/>
  <line id="svg_34" stroke-width="2" stroke="white" y2="300" x2="350" y1="290" x1="340"/>
  <line id="svg_35" stroke-width="2" stroke="white" y2="300" x2="350" y1="310" x1="340"/>
  <text fill="white" id="svg_36" font-family=" Arial, Helvetica, sans-serif" text-anchor="middle" y="295" x="275">{NB(2)}_(pk(x601))</text>
 </g>
</svg>